Nederlands gesproken, en met bekende Nederlandse stemmen,

Vier Britse kinderen worden naar het buitenhuis van een professor gestuurd, waar ze veilig zullen zijn tijdens de Tweede Wereldoorlog. Ze vinden een magische garderobe, waarmee ze in het mysterieuze land Narnia kunnen komen. Het land wordt overheerst door een slechte heks, en om haar te kunnen verslaan, moeten de kinderen leeuwenkoning Aslan vergezellen.

Dutch spoken.

------------------ Dutch Friends ------------------

Vrienden van mij vind je hier: http://www.Film-Test.nl 
                    
------ They got my dutchs subs ---- and more ------

General:

Complete name                    : Narnia\De Leeuw, de Heks en de Kleerkast.avi
Format                           : AVI
Format/Info                      : Audio Video Interleave
File size                        : 1.95 GiB
Duration                         : 2h 16mn
Overall bit rate                 : 2 043 Kbps

Video:

Format                           : MPEG-4 Visual
Format profile                   : Simple@L3
Format settings, BVOP            : No
Format settings, QPel            : No
Format settings, GMC             : No warppoints
Format settings, Matrix          : Default (H.263)
Codec ID                         : XVID
Codec ID/Hint                    : XviD
Duration                         : 2h 16mn
Bit rate                         : 1 648 Kbps
Width                            : 720 pixels
Height                           : 304 pixels
Display aspect ratio             : 2.35:1
Frame rate                       : 25.000 fps
Color space                      : YUV
Chroma subsampling               : 4:2:0
Bit depth                        : 8 bits
Scan type                        : Progressive
Bits/(Pixel*Frame)               : 0.301
Stream size                      : 1.57 GiB (81%)
Writing library                  : XviD 1.1.2 (UTC 2006-11-01)

Audio:

Format                           : AC-3
Format/Info                      : Audio Coding 3
Mode extension                   : CM (complete main)
Codec ID                         : 2000
Duration                         : 2h 16mn
Bit rate mode                    : Constant
Bit rate                         : 384 Kbps
Channel(s)                       : 6 channels
Channel positions                : Front: L C R, Side: L R, LFE
Sampling rate                    : 48.0 KHz
Bit depth                        : 16 bits
Stream size                      : 374 MiB (19%)
Alignment                        : Aligned on interleaves
Interleave, duration             : 32 ms (0.80 video frame)
Interleave, preload duration     : 384 ms

